<?xml version="1.0" encoding="UTF-8"?><svg xmlns="http://www.w3.org/2000/svg" viewBox="0 0 274.95 357.49"><defs><style>.d{fill:#0a0a0b;}.e{fill:#fefefe;}</style></defs><g id="a"/><g id="b"><g id="c"><g><path class="d" d="M274.37,287.88c-1.88-10.77-11.19-22.03-23.52-22.66-1-.05-1.04-.62-1.16-1.32-.33-1.88-.62-3.77-1.04-5.63-2-8.65-6.45-16.15-11.37-23.36-16.7-24.45-33.48-48.84-50.23-73.27-.68-.99-1.41-1.91-1.58-3.24-2.3-18.37-5.76-36.57-8.51-54.87-2.27-15.12-4.74-30.22-7.13-45.33-1-6.34-1.25-12.8-3.17-18.99-2.9-9.33-9.41-14.15-18.73-13.56-6.21,.39-11.22,3.33-15.17,8.06-6.08,7.28-8.79,15.98-10.26,25.15-.77,4.81-.98,9.68-.68,14.64-.97-.27-1.08-1.04-1.4-1.58-10.03-16.8-19.91-33.69-29.54-50.73-3.09-5.46-6.12-10.99-10.69-15.41-7.53-7.3-17.38-7.75-25.51-1.12-6.65,5.42-9.65,12.88-10.27,21.09-1.58,20.97,5.84,38.34,21.84,52.02,.31,.26,.88,.37,.77,1.09-12.04,.95-24.08,1.88-36.12,2.84-6.18,.49-12.34,1.17-18.12,3.67C3.84,89.25-.54,96.48,.05,106.13c.17,2.69,1.08,5.17,1.91,7.88,1.17,1.32,2.17,2.76,3.26,4.37,1.68,2.5,3.88,4.55,5.83,6.84,.3,.16,.6,.35,.91,.57,7.99,5.71,17.14,8.66,26.61,10.59,16.1,3.28,32.08,2.86,47.85-2.11,3.19-1.01,6.35-.16,9.48,.68,.88,.23,.95,.72,.94,1.32,.15,.09,.3,.18,.44,.28,3.57,.87,6.72,2.91,9.59,5.35,0-.27,0-.53,0-.83,3.7,3.1,6.43,6.36,8.8,9.93,6.61,9.96,11.45,20.88,17.06,31.38,8.95,16.78,12.11,34.92,12.75,53.66,.11,3.23-.33,6.43-1.06,9.56-2.46,10.59-8.87,15.95-19.77,16.88-5.05,.43-10.1,.28-15.15,.32-.76,0-1.29-.08-1.68-.3-3.41,1.11-7.85,1.02-11.82,.76-.35,.27-.83,.44-1.5,.58-7.35,1.49-13.74,4.99-19.35,9.9-.18,.16-.36,.28-.54,.4-2.01,4.2-5.99,7.38-8.42,11.38-.91,1.5-1.83,3.07-2.89,4.49-3.48,8.37-3.99,17.17-2.46,26.27,.84,5.01,3.62,8.3,7.86,9.07,2.19,.4,4.42,.29,6.63-.13,5.85-1.12,11.11-3.73,16.35-6.41,12.46-6.37,24.86-6.68,37.25,.21,3.47,1.93,6.99,3.77,10.48,5.66,6.22,3.36,12.74,5.89,19.75,7.02,4.7,.76,9.43,.87,14.39,.06-.63,2.57-1.05,4.72-.7,6.98,1.4,8.9,8.37,16.14,17.34,18.01,5.27,1.1,10.53,.94,15.72-.25,14.33-3.3,27.24-9.8,39.41-17.86,8.69-5.75,16.42-12.58,22.2-21.37,5.88-8.94,8.75-18.63,6.87-29.4ZM135.95,45.83c1.37-3.09,3.24-5.9,5.88-8.12,2.07-1.74,4.45-2.68,7.14-2.73,4.02-.07,6.6,1.71,7.98,5.63,1.66,4.73,1.97,9.73,2.74,14.63,2.62,16.7,5.14,33.42,7.7,50.12,1.82,11.87,3.64,23.73,5.46,35.6-6.28-7.74-12.21-15.52-18.35-23.12-4.86-6.02-9.81-11.97-15.05-17.66-.41-.45-.91-.88-1.16-1.42-8.25-17.31-10.3-34.92-2.33-52.93ZM53.59,31.61c-.17-4.53,.67-9,2.61-13.17,.54-1.17,1.13-2.35,1.88-3.4,5.01-7.03,11.97-7.22,17.28-.46,2.94,3.74,4.99,8.05,7.37,12.14,9.68,16.65,19.31,33.33,28.96,50,.48,.83,.94,1.68,1.6,2.87-7.4-2.43-14.66-3.12-22.03-2.83-2.91,.12-5.81,.33-8.71,.62-.93,.09-1.63-.15-2.36-.6-16.84-10.36-25.86-25.38-26.59-45.18Zm204.5,282.63c-5.88,7.71-13.36,13.69-21.53,18.77-10.8,6.72-21.99,12.63-34.77,14.73-3.65,.6-7.31,.7-10.94-.23-7.39-1.9-11.22-10.24-8.66-15.71,.78-1.66,1.43-2.58,3.12-3.26,6.42-2.6,12.13-6.22,15.65-12.48,.5-.89,1.76-1.94,.67-3.01-.99-.97-1.98,.24-2.85,.68-4.63,2.34-8.99,5.2-13.85,7.09-13.08,5.09-25.74,4.04-38-2.64-3.82-2.08-7.7-4.06-11.46-6.25-16.63-9.69-33.32-9.74-50.15-.56-2.81,1.53-5.6,3.13-8.65,4.16-4.08,1.37-6.17,.19-6.75-4.07-2.22-16.24,7.15-33,26.01-37.96,4.94-1.3,9.97-1.47,15.04-1.42,6.66,.07,13.35,.38,19.92-1.07,12.49-2.75,19.63-10.76,22.4-23.01,.96-4.25,1.13-8.59,1.37-13.13,2.83,3.59,3.5,7.75,5.08,11.53,.25,.6,.4,1.64,1.12,1.56,.96-.12,.7-1.2,.71-1.89,.17-10.87-1.11-21.52-4.71-31.83-7.38-21.13-17.49-40.98-28.48-60.39-4.67-8.25-10.27-15.78-18.2-21.3-2.88-2.01-6.04-3.46-9.47-4.81,3.24-2.53,6.31-4.89,9.34-7.3,.53-.42,1.59-.84,.85-1.76-.56-.71-1.27-.04-1.83,.28-5.17,2.94-10.74,4.51-16.57,5.68-5.44,1.09-10.73,2.98-16.26,3.78-18.32,2.67-36.16,1.52-53.09-6.72-4.6-2.24-8.74-5.08-11.5-9.54-5-8.05-2.12-15.98,6.87-18.95,4.69-1.55,9.58-1.91,14.46-2.3,15.04-1.18,30.08-2.38,45.12-3.53,5.19-.4,10.4-.67,15.59-.98,12.72-.77,22.98,4.07,31.65,13.25,17.3,18.31,32.68,38.14,46.97,58.83,19.35,28.01,39.05,55.78,57.89,84.14,4.93,7.41,9.09,15.23,11.16,23.98,2.34,9.85,1.4,19.01-5.92,26.75-.81,.86-1.23,1.82-.31,2.84,1.02,1.13,2.02,.65,3.02-.12,6.46-4.99,9.91-11.74,11.17-19.64,.33-2.07,.98-2.23,2.74-1.75,7.4,2.03,12.83,8.81,13.48,16.8,.7,8.66-2.35,16.07-7.46,22.77Z"/><path class="e" d="M154.66,234.88c2.83,3.59,3.5,7.75,5.08,11.53,.25,.6,.4,1.64,1.12,1.56,.96-.12,.7-1.2,.71-1.89,.17-10.87-1.11-21.52-4.71-31.83-7.38-21.13-17.49-40.98-28.48-60.39-4.67-8.25-10.27-15.78-18.2-21.3-2.88-2.01-6.04-3.46-9.47-4.81,3.24-2.53,6.31-4.89,9.34-7.3,.53-.42,1.59-.84,.85-1.76-.56-.71-1.27-.04-1.83,.28-5.17,2.94-10.74,4.51-16.57,5.69-5.44,1.09-10.73,2.98-16.26,3.78-18.32,2.67-36.16,1.52-53.09-6.72-4.6-2.24-8.74-5.08-11.5-9.54-5-8.05-2.12-15.98,6.87-18.95,4.69-1.55,9.58-1.91,14.46-2.3,15.04-1.18,30.08-2.38,45.12-3.53,5.19-.4,10.39-.67,15.59-.98,12.72-.77,22.98,4.07,31.65,13.25,17.3,18.31,32.68,38.14,46.97,58.83,19.35,28.01,39.05,55.78,57.89,84.14,4.93,7.41,9.09,15.23,11.16,23.98,2.34,9.85,1.4,19.01-5.92,26.75-.81,.86-1.23,1.82-.31,2.84,1.02,1.13,2.02,.65,3.02-.12,6.46-4.99,9.91-11.74,11.17-19.64,.33-2.07,.98-2.23,2.74-1.75,7.4,2.03,12.83,8.81,13.48,16.8,.7,8.66-2.35,16.07-7.46,22.77-5.88,7.71-13.36,13.69-21.53,18.77-10.8,6.72-21.99,12.63-34.77,14.73-3.65,.6-7.31,.7-10.94-.23-7.39-1.9-11.22-10.24-8.66-15.71,.78-1.66,1.43-2.58,3.12-3.26,6.42-2.6,12.13-6.22,15.65-12.48,.5-.89,1.76-1.94,.67-3.01-.99-.97-1.98,.24-2.85,.68-4.63,2.34-8.99,5.2-13.85,7.09-13.08,5.09-25.74,4.04-38-2.64-3.82-2.08-7.7-4.06-11.46-6.25-16.63-9.69-33.32-9.74-50.15-.56-2.81,1.53-5.6,3.13-8.65,4.16-4.08,1.37-6.17,.19-6.75-4.07-2.22-16.24,7.15-33,26.01-37.96,4.94-1.3,9.97-1.47,15.04-1.42,6.66,.07,13.35,.38,19.92-1.07,12.49-2.75,19.63-10.76,22.4-23.01,.96-4.25,1.13-8.59,1.37-13.13Z"/><path class="e" d="M172.85,140.96c-6.28-7.74-12.21-15.52-18.35-23.12-4.86-6.02-9.81-11.97-15.05-17.66-.41-.45-.91-.88-1.16-1.42-8.25-17.31-10.3-34.92-2.33-52.93,1.37-3.09,3.24-5.9,5.88-8.12,2.07-1.74,4.45-2.68,7.14-2.73,4.02-.07,6.6,1.71,7.98,5.63,1.66,4.73,1.97,9.73,2.74,14.63,2.62,16.7,5.14,33.42,7.7,50.12,1.82,11.87,3.64,23.73,5.46,35.6Z"/><path class="e" d="M113.27,79.59c-7.4-2.43-14.66-3.12-22.03-2.83-2.91,.12-5.81,.33-8.71,.62-.93,.09-1.63-.15-2.36-.6-16.84-10.36-25.86-25.38-26.59-45.18-.17-4.53,.67-9,2.61-13.17,.54-1.17,1.13-2.35,1.88-3.4,5.01-7.03,11.97-7.22,17.28-.46,2.94,3.74,4.99,8.05,7.37,12.14,9.68,16.65,19.31,33.33,28.96,50,.48,.83,.94,1.68,1.6,2.87Z"/></g></g></g></svg>